<mxfile host="app.diagrams.net" modified="2023-01-20T19:43:15.644Z" agent="5.0 (Windows NT 10.0; Win64; x64) AppleWebKit/537.36 (KHTML, like Gecko) Chrome/109.0.0.0 Safari/537.36" etag="hXM_DZXqdsswMbxHIT-l" version="20.8.10" type="github">
  <diagram id="C5RBs43oDa-KdzZeNtuy" name="Page-1">
    <mxGraphModel dx="1434" dy="764" grid="1" gridSize="10" guides="1" tooltips="1" connect="1" arrows="1" fold="1" page="1" pageScale="1" pageWidth="827" pageHeight="1169" math="0" shadow="0">
      <root>
        <mxCell id="WIyWlLk6GJQsqaUBKTNV-0" />
        <mxCell id="WIyWlLk6GJQsqaUBKTNV-1" parent="WIyWlLk6GJQsqaUBKTNV-0" />
        <mxCell id="61IgEG6gzt1TAaFlXaz2-3" value="" style="edgeStyle=orthogonalEdgeStyle;rounded=0;orthogonalLoop=1;jettySize=auto;html=1;" edge="1" parent="WIyWlLk6GJQsqaUBKTNV-1" source="WIyWlLk6GJQsqaUBKTNV-3" target="61IgEG6gzt1TAaFlXaz2-0">
          <mxGeometry relative="1" as="geometry" />
        </mxCell>
        <mxCell id="WIyWlLk6GJQsqaUBKTNV-3" value="Homepage" style="rounded=1;whiteSpace=wrap;html=1;fontSize=12;glass=0;strokeWidth=1;shadow=0;" parent="WIyWlLk6GJQsqaUBKTNV-1" vertex="1">
          <mxGeometry x="160" y="80" width="120" height="40" as="geometry" />
        </mxCell>
        <mxCell id="61IgEG6gzt1TAaFlXaz2-2" value="" style="edgeStyle=orthogonalEdgeStyle;rounded=0;orthogonalLoop=1;jettySize=auto;html=1;" edge="1" parent="WIyWlLk6GJQsqaUBKTNV-1" source="61IgEG6gzt1TAaFlXaz2-0" target="61IgEG6gzt1TAaFlXaz2-1">
          <mxGeometry relative="1" as="geometry" />
        </mxCell>
        <mxCell id="61IgEG6gzt1TAaFlXaz2-0" value="Customer clicks &quot;Find Trainer&quot;" style="rounded=1;whiteSpace=wrap;html=1;" vertex="1" parent="WIyWlLk6GJQsqaUBKTNV-1">
          <mxGeometry x="135" y="160" width="170" height="40" as="geometry" />
        </mxCell>
        <mxCell id="61IgEG6gzt1TAaFlXaz2-5" value="" style="edgeStyle=orthogonalEdgeStyle;rounded=0;orthogonalLoop=1;jettySize=auto;html=1;" edge="1" parent="WIyWlLk6GJQsqaUBKTNV-1" source="61IgEG6gzt1TAaFlXaz2-1" target="61IgEG6gzt1TAaFlXaz2-4">
          <mxGeometry relative="1" as="geometry" />
        </mxCell>
        <mxCell id="61IgEG6gzt1TAaFlXaz2-1" value="&quot;Find trainer&quot; page opens" style="rounded=1;whiteSpace=wrap;html=1;" vertex="1" parent="WIyWlLk6GJQsqaUBKTNV-1">
          <mxGeometry x="145" y="240" width="150" height="40" as="geometry" />
        </mxCell>
        <mxCell id="61IgEG6gzt1TAaFlXaz2-7" value="" style="edgeStyle=orthogonalEdgeStyle;rounded=0;orthogonalLoop=1;jettySize=auto;html=1;" edge="1" parent="WIyWlLk6GJQsqaUBKTNV-1" source="61IgEG6gzt1TAaFlXaz2-4" target="61IgEG6gzt1TAaFlXaz2-6">
          <mxGeometry relative="1" as="geometry" />
        </mxCell>
        <mxCell id="61IgEG6gzt1TAaFlXaz2-4" value="Customer finds the course and wants to apply" style="whiteSpace=wrap;html=1;rounded=1;" vertex="1" parent="WIyWlLk6GJQsqaUBKTNV-1">
          <mxGeometry x="145" y="320" width="150" height="40" as="geometry" />
        </mxCell>
        <mxCell id="61IgEG6gzt1TAaFlXaz2-11" value="No" style="edgeStyle=orthogonalEdgeStyle;rounded=0;orthogonalLoop=1;jettySize=auto;html=1;" edge="1" parent="WIyWlLk6GJQsqaUBKTNV-1" source="61IgEG6gzt1TAaFlXaz2-6" target="61IgEG6gzt1TAaFlXaz2-10">
          <mxGeometry relative="1" as="geometry" />
        </mxCell>
        <mxCell id="61IgEG6gzt1TAaFlXaz2-13" value="" style="edgeStyle=orthogonalEdgeStyle;rounded=0;orthogonalLoop=1;jettySize=auto;html=1;" edge="1" parent="WIyWlLk6GJQsqaUBKTNV-1" source="61IgEG6gzt1TAaFlXaz2-6" target="61IgEG6gzt1TAaFlXaz2-12">
          <mxGeometry relative="1" as="geometry" />
        </mxCell>
        <mxCell id="61IgEG6gzt1TAaFlXaz2-6" value="Is customer&lt;br&gt;logged in?" style="rhombus;whiteSpace=wrap;html=1;rounded=1;" vertex="1" parent="WIyWlLk6GJQsqaUBKTNV-1">
          <mxGeometry x="359" y="285" width="110" height="110" as="geometry" />
        </mxCell>
        <mxCell id="61IgEG6gzt1TAaFlXaz2-15" value="" style="edgeStyle=orthogonalEdgeStyle;rounded=0;orthogonalLoop=1;jettySize=auto;html=1;" edge="1" parent="WIyWlLk6GJQsqaUBKTNV-1" source="61IgEG6gzt1TAaFlXaz2-10" target="61IgEG6gzt1TAaFlXaz2-14">
          <mxGeometry relative="1" as="geometry" />
        </mxCell>
        <mxCell id="61IgEG6gzt1TAaFlXaz2-10" value="Does the&lt;br&gt;customer have a login?" style="rhombus;whiteSpace=wrap;html=1;rounded=1;" vertex="1" parent="WIyWlLk6GJQsqaUBKTNV-1">
          <mxGeometry x="549" y="285" width="110" height="110" as="geometry" />
        </mxCell>
        <mxCell id="61IgEG6gzt1TAaFlXaz2-12" value="Proceed to details page" style="whiteSpace=wrap;html=1;rounded=1;" vertex="1" parent="WIyWlLk6GJQsqaUBKTNV-1">
          <mxGeometry x="354" y="440" width="120" height="40" as="geometry" />
        </mxCell>
        <mxCell id="61IgEG6gzt1TAaFlXaz2-17" value="" style="edgeStyle=orthogonalEdgeStyle;rounded=0;orthogonalLoop=1;jettySize=auto;html=1;" edge="1" parent="WIyWlLk6GJQsqaUBKTNV-1" source="61IgEG6gzt1TAaFlXaz2-14" target="61IgEG6gzt1TAaFlXaz2-16">
          <mxGeometry relative="1" as="geometry" />
        </mxCell>
        <mxCell id="61IgEG6gzt1TAaFlXaz2-14" value="Redirect to Signup page" style="whiteSpace=wrap;html=1;rounded=1;" vertex="1" parent="WIyWlLk6GJQsqaUBKTNV-1">
          <mxGeometry x="734" y="310" width="120" height="60" as="geometry" />
        </mxCell>
        <mxCell id="61IgEG6gzt1TAaFlXaz2-19" value="Yes" style="edgeStyle=orthogonalEdgeStyle;rounded=0;orthogonalLoop=1;jettySize=auto;html=1;exitX=0.5;exitY=1;exitDx=0;exitDy=0;entryX=1;entryY=0.5;entryDx=0;entryDy=0;" edge="1" parent="WIyWlLk6GJQsqaUBKTNV-1" source="61IgEG6gzt1TAaFlXaz2-16" target="61IgEG6gzt1TAaFlXaz2-12">
          <mxGeometry relative="1" as="geometry" />
        </mxCell>
        <mxCell id="61IgEG6gzt1TAaFlXaz2-16" value="Customer registered?" style="rhombus;whiteSpace=wrap;html=1;rounded=1;" vertex="1" parent="WIyWlLk6GJQsqaUBKTNV-1">
          <mxGeometry x="920" y="290" width="100" height="100" as="geometry" />
        </mxCell>
      </root>
    </mxGraphModel>
  </diagram>
</mxfile>
